Source - Iron Man 3 2013  FULL CAM NEW AUDIO XViD - JUSTICE

NOTES - Enjoy.  Going on the info im given im told its a new audio source, i cant clarify this however.

General
Complete name                            : Iron Man 3 2013 Full Cam New Audio AAC x264-SSDD.mp4
Format                                   : MPEG-4
Format profile                           : Base Media
Codec ID                                 : isom
File size                                : 550 MiB
Duration                                 : 1h 59mn
Overall bit rate mode                    : Variable
Overall bit rate                         : 643 Kbps

Video
ID                                       : 1
Format                                   : AVC
Format/Info                              : Advanced Video Codec
Format profile                           : High@L4.1
Format settings, CABAC                   : Yes
Format settings, ReFrames                : 4 frames
Codec ID                                 : avc1
Codec ID/Info                            : Advanced Video Coding
Duration                                 : 1h 59mn
Bit rate                                 : 575 Kbps
Maximum bit rate                         : 1 411 Kbps
Width                                    : 720 pixels
Height                                   : 288 pixels
Display aspect ratio                     : 2.500
Frame rate mode                          : Constant
Frame rate                               : 25.000 fps
Color space                              : YUV
Chroma subsampling                       : 4:2:0
Bit depth                                : 8 bits
Scan type                                : Progressive
Bits/(Pixel*Frame)                       : 0.111
Stream size                              : 493 MiB (89%)
Writing library                          : x264 core 130 r2273 b3065e6

Audio
ID                                       : 2
Format                                   : AAC
Format/Info                              : Advanced Audio Codec
Format profile                           : LC
Codec ID                                 : 40
Duration                                 : 1h 59mn
Bit rate mode                            : Variable
Bit rate                                 : 64.0 Kbps
Maximum bit rate                         : 67.6 Kbps
Channel(s)                               : 2 channels
Channel positions                        : Front: L R
Sampling rate                            : 48.0 KHz
Compression mode                         : Lossy
Stream size                              : 54.8 MiB (10%)

Screens: 
http://i.imgur.com/Zrt9RYP.png 
http://i.imgur.com/9ap09NJ.png 
http://i.imgur.com/4O4hJL8.png 
http://i.imgur.com/FhuQYUL.png